<?xml version="1.0" standalone="no"?>
<!DOCTYPE svg PUBLIC "-//W3C//DTD SVG 20010904//EN"
 "http://www.w3.org/TR/2001/REC-SVG-20010904/DTD/svg10.dtd">
<svg version="1.0" xmlns="http://www.w3.org/2000/svg"
 width="500.000000pt" height="500.000000pt" viewBox="0 0 500.000000 500.000000"
 preserveAspectRatio="xMidYMid meet">

<g transform="translate(0.000000,500.000000) scale(0.100000,-0.100000)"
fill="#000000" stroke="none">
<path d="M2850 4045 c-751 -96 -1368 -174 -1372 -175 -5 0 8 -21 28 -47 43
-56 78 -124 93 -178 5 -22 22 -121 36 -219 13 -99 26 -180 27 -181 2 -2 476
19 1053 46 578 26 1070 48 1094 49 36 0 49 -6 77 -34 26 -26 34 -42 34 -71 0
-39 -143 -787 -161 -842 -17 -54 -94 -129 -167 -165 l-67 -33 -857 -5 c-561
-3 -858 -8 -859 -15 0 -5 2 -38 6 -73 5 -46 13 -70 33 -94 51 -60 17 -58 898
-58 l806 0 34 -34 c29 -29 34 -41 34 -79 0 -36 -6 -51 -29 -76 l-29 -31 -841
0 c-827 0 -841 0 -896 21 -35 13 -77 41 -114 75 -103 95 -96 63 -217 955 -71
522 -113 801 -126 836 -37 99 -134 174 -251 193 -60 9 -328 -20 -413 -45 -104
-31 -184 -137 -184 -243 0 -101 301 -2353 322 -2409 38 -103 162 -203 271
-218 56 -7 2583 -115 2709 -115 73 0 111 5 152 20 95 36 172 113 210 209 23
60 309 2948 297 3001 -25 111 -112 190 -221 203 -28 4 -547 -58 -1410 -168z
m-592 -2521 c109 -87 105 -224 -10 -306 -47 -33 -140 -33 -190 1 -124 85 -109
264 27 327 49 23 128 13 173 -22z m991 3 c46 -30 81 -96 81 -152 0 -119 -123
-212 -234 -175 -80 26 -129 92 -129 175 0 146 160 233 282 152z"/>
<path d="M2646 3063 c-523 -24 -951 -45 -953 -46 -1 -2 15 -135 37 -296 22
-161 40 -297 40 -302 0 -6 327 -8 848 -7 797 3 849 4 884 21 20 10 39 26 43
35 7 18 125 615 125 632 0 6 -17 9 -37 9 -21 -1 -465 -21 -987 -46z"/>
</g>
</svg>
