<?xml version="1.0" standalone="no"?>
<!DOCTYPE svg PUBLIC "-//W3C//DTD SVG 20010904//EN"
 "http://www.w3.org/TR/2001/REC-SVG-20010904/DTD/svg10.dtd">
<svg version="1.0" xmlns="http://www.w3.org/2000/svg"
 width="256.000000pt" height="256.000000pt" viewBox="0 0 256.000000 256.000000"
 preserveAspectRatio="xMidYMid meet">

<g transform="translate(0.000000,256.000000) scale(0.100000,-0.100000)"
fill="#000000" stroke="none">
<path d="M1833 1176 c-79 -29 -145 -55 -149 -58 -3 -4 9 -20 27 -36 l33 -30
-39 -47 c-22 -26 -50 -59 -61 -74 l-22 -25 -97 82 c-53 45 -101 79 -106 76 -5
-3 -68 -75 -140 -161 l-132 -157 29 -23 c16 -13 45 -37 65 -53 l35 -29 84 100
83 99 56 -47 c31 -26 73 -62 94 -80 20 -18 41 -33 45 -33 5 0 57 57 117 128
59 70 111 128 115 130 4 2 22 -9 39 -24 18 -14 33 -25 35 -23 1 2 16 79 32
172 27 145 28 167 15 166 -9 0 -80 -24 -158 -53z"/>
</g>
</svg>
